<svg width="16" height="16" viewBox="0 0 16 16" fill="none" xmlns="http://www.w3.org/2000/svg">
<path d="M0 12.6667C0 14.5047 1.49533 16 3.33333 16H12.6667C14.5047 16 16 14.5047 16 12.6667V6.66667H0V12.6667ZM2 10C2 9.26467 2.598 8.66667 3.33333 8.66667H4.66667C5.402 8.66667 6 9.26467 6 10V11.3333C6 12.0687 5.402 12.6667 4.66667 12.6667H3.33333C2.598 12.6667 2 12.0687 2 11.3333V10ZM4.66733 11.3333H3.33333V10H4.66667L4.66733 11.3333ZM16 4.66667V5.33333H0V4.66667C0 2.82867 1.49533 1.33333 3.33333 1.33333H4V0.666667C4 0.489856 4.07024 0.320286 4.19526 0.195262C4.32029 0.0702379 4.48986 0 4.66667 0C4.84348 0 5.01305 0.0702379 5.13807 0.195262C5.2631 0.320286 5.33333 0.489856 5.33333 0.666667V1.33333H10.6667V0.666667C10.6667 0.489856 10.7369 0.320286 10.8619 0.195262C10.987 0.0702379 11.1565 0 11.3333 0C11.5101 0 11.6797 0.0702379 11.8047 0.195262C11.9298 0.320286 12 0.489856 12 0.666667V1.33333H12.6667C14.5047 1.33333 16 2.82867 16 4.66667Z" fill="#F8F8F8"/>
</svg>
