<svg width="16" height="16" viewBox="0 0 16 16" fill="none" xmlns="http://www.w3.org/2000/svg">
<g clip-path="url(#clip0_142_19)">
<path d="M5.00328 16C3.79644 15.9992 2.63061 15.562 1.72091 14.769C0.811213 13.9759 0.219035 12.8807 0.053653 11.6852C-0.111729 10.4898 0.160845 9.27483 0.821079 8.26462C1.48131 7.2544 2.48465 6.51707 3.64594 6.18868C4.49003 5.94696 5.38347 5.93591 6.23328 6.15668L11.5053 0.886013C11.7852 0.604201 12.1182 0.380769 12.4851 0.228677C12.852 0.0765844 13.2454 -0.00113987 13.6426 1.26315e-05C14.2677 0.000542253 14.8669 0.249074 15.3089 0.691045C15.7509 1.13302 15.9994 1.7323 15.9999 2.35735C16.001 2.75454 15.9233 3.148 15.7713 3.51497C15.6193 3.88195 15.3961 4.21516 15.1146 4.49535L14.6666 4.94335C14.4159 5.19231 14.0772 5.33243 13.7239 5.33335H12.6666V6.00001C12.6666 6.35363 12.5261 6.69277 12.2761 6.94282C12.026 7.19287 11.6869 7.33335 11.3333 7.33335H10.6666V8.39068C10.6671 8.56584 10.6328 8.73935 10.5657 8.90116C10.4987 9.06297 10.4002 9.20987 10.2759 9.33335L9.84261 9.76668C10.0646 10.6161 10.0538 11.5096 9.81128 12.3533C9.53842 13.3147 8.98482 14.1727 8.22137 14.8175C7.45792 15.4623 6.51938 15.8645 5.52594 15.9727C5.3523 15.9907 5.17785 15.9998 5.00328 16ZM5.00328 7.33335C4.32071 7.33269 3.65151 7.52256 3.071 7.8816C2.4905 8.24064 2.02173 8.7546 1.71748 9.3656C1.41323 9.97661 1.28556 10.6604 1.34886 11.34C1.41216 12.0197 1.6639 12.6681 2.07576 13.2124C2.48761 13.7568 3.04322 14.1753 3.68005 14.421C4.31687 14.6666 5.00963 14.7297 5.68034 14.603C6.35104 14.4763 6.97307 14.1649 7.47639 13.7038C7.97972 13.2428 8.34436 12.6504 8.52928 11.9933C8.73728 11.271 8.71396 10.5017 8.46261 9.79335C8.42159 9.67504 8.41472 9.54757 8.44278 9.42554C8.47084 9.30351 8.5327 9.19185 8.62128 9.10335L9.33328 8.39068V7.33335C9.33328 6.97972 9.47375 6.64059 9.7238 6.39054C9.97385 6.14049 10.313 6.00001 10.6666 6.00001H11.3333V5.33335C11.3333 4.97972 11.4738 4.64059 11.7238 4.39054C11.9739 4.14049 12.313 4.00001 12.6666 4.00001H13.7239L14.1719 3.55201C14.3293 3.39545 14.454 3.20925 14.5389 3.0042C14.6238 2.79914 14.6672 2.57929 14.6666 2.35735C14.6664 2.08593 14.5586 1.82568 14.3667 1.6337C14.1749 1.44172 13.9147 1.3337 13.6433 1.33335C13.4212 1.3328 13.2012 1.3763 12.996 1.46132C12.7908 1.54634 12.6046 1.6712 12.4479 1.82868L6.89394 7.38201C6.80531 7.4706 6.6935 7.53241 6.57134 7.56036C6.44918 7.5883 6.32161 7.58125 6.20328 7.54001C5.81666 7.40389 5.40983 7.33402 4.99994 7.33335H5.00328ZM3.33328 12C3.33328 12.1319 3.37238 12.2608 3.44563 12.3704C3.51889 12.48 3.623 12.5655 3.74482 12.6159C3.86664 12.6664 4.00068 12.6796 4.13 12.6539C4.25933 12.6281 4.37811 12.5647 4.47135 12.4714C4.56458 12.3782 4.62808 12.2594 4.6538 12.1301C4.67952 12.0008 4.66632 11.8667 4.61586 11.7449C4.56541 11.6231 4.47996 11.519 4.37032 11.4457C4.26069 11.3724 4.1318 11.3333 3.99994 11.3333C3.82313 11.3333 3.65356 11.4036 3.52854 11.5286C3.40352 11.6536 3.33328 11.8232 3.33328 12Z" fill="#7C7C7C"/>
</g>
<defs>
<clipPath id="clip0_142_19">
<rect width="16" height="16" fill="white"/>
</clipPath>
</defs>
</svg>
