<svg width="29" height="28" viewBox="0 0 29 28" fill="none" xmlns="http://www.w3.org/2000/svg">
<rect x="0.5" width="28" height="28" rx="6" fill="#171D29"/>
<g clip-path="url(#clip0_159_79)">
<path d="M17.6275 18.1947C16.1276 19.2327 14.3538 19.7866 12.5318 19.7866C12.331 19.7866 12.1298 19.7799 11.9281 19.7663C10.4827 19.6693 9.09879 19.2285 7.8833 18.4934C8.16556 18.9057 8.4854 19.2909 8.8387 19.6441C10.3502 21.1556 12.3598 21.988 14.4974 21.988C15.8332 21.988 17.119 21.6629 18.2645 21.0502C18.2276 20.0676 18.0117 19.0999 17.6275 18.1947ZM15.9619 6.11632C14.1643 6.64264 12.607 7.78345 11.5555 9.35162C10.5099 10.9111 10.0476 12.7755 10.2378 14.6368C11.5558 14.6368 12.872 14.3082 14.0386 13.6828C14.0879 12.184 14.5109 10.7203 15.2696 9.43236C15.9067 8.35079 16.7661 7.41321 17.7828 6.6841C17.2009 6.42213 16.5895 6.23148 15.9619 6.11632Z" fill="white"/>
<path d="M19.9823 13.714C19.1547 12.029 17.7715 10.6965 16.0648 9.93058C15.392 11.0811 15.0177 12.3873 14.9756 13.7248C16.2489 14.5169 17.3049 15.615 18.041 16.9161C18.6624 18.0144 19.0453 19.2345 19.1663 20.4864C19.5182 20.2326 19.8492 19.9509 20.1561 19.6441C20.2989 19.5012 20.4364 19.3531 20.5683 19.2001C21.0281 17.3647 20.8226 15.4249 19.9823 13.714ZM9.29084 14.5789C9.11841 12.5513 9.63742 10.5283 10.7766 8.82932C11.5644 7.65432 12.6071 6.69438 13.8144 6.01197C11.9345 6.16983 10.1881 6.97741 8.83873 8.32672C7.39229 9.77316 6.5683 11.6758 6.5 13.7102C7.36978 14.1669 8.31551 14.4613 9.29084 14.5789Z" fill="white"/>
<path d="M14.4707 14.5153C13.1709 15.2097 11.7199 15.5746 10.2515 15.5746V15.5743C8.76247 15.5743 7.67377 15.2871 6.53265 14.7698C6.59168 15.3823 6.72148 15.986 6.91947 16.5687C8.28247 17.9005 10.0764 18.7021 11.991 18.8307C13.8553 18.9559 15.6929 18.4298 17.2057 17.3448C16.5459 16.1916 15.6043 15.2183 14.4707 14.5153ZM16.5915 9.14089C18.4319 10.0056 19.9229 11.4658 20.8241 13.3006C21.4551 14.5853 21.7652 15.9858 21.7446 17.3889C22.2392 16.3377 22.5 15.1816 22.5 13.9854C22.5 11.8479 21.6676 9.83824 20.1561 8.32672C19.7221 7.89229 19.2399 7.50887 18.7189 7.18391C17.8979 7.70316 17.1773 8.36608 16.5915 9.14089Z" fill="white"/>
</g>
<defs>
<clipPath id="clip0_159_79">
<rect width="16" height="16" fill="white" transform="translate(6.5 6)"/>
</clipPath>
</defs>
</svg>
