<svg width="16" height="16" viewBox="0 0 16 16" fill="none" xmlns="http://www.w3.org/2000/svg">
<path d="M12.6667 0.666656H3.33333C2.4496 0.667715 1.60237 1.01924 0.97748 1.64414C0.352588 2.26903 0.00105857 3.11626 0 3.99999L0 12C0.00105857 12.8837 0.352588 13.731 0.97748 14.3558C1.60237 14.9807 2.4496 15.3323 3.33333 15.3333H12.6667C13.5504 15.3323 14.3976 14.9807 15.0225 14.3558C15.6474 13.731 15.9989 12.8837 16 12V3.99999C15.9989 3.11626 15.6474 2.26903 15.0225 1.64414C14.3976 1.01924 13.5504 0.667715 12.6667 0.666656ZM3.33333 1.99999H12.6667C13.0659 2.00078 13.4557 2.121 13.786 2.34519C14.1163 2.56939 14.3719 2.88729 14.52 3.25799L9.41467 8.36399C9.03895 8.7382 8.53028 8.9483 8 8.9483C7.46972 8.9483 6.96105 8.7382 6.58533 8.36399L1.48 3.25799C1.6281 2.88729 1.88374 2.56939 2.21403 2.34519C2.54432 2.121 2.93414 2.00078 3.33333 1.99999ZM12.6667 14H3.33333C2.8029 14 2.29419 13.7893 1.91912 13.4142C1.54405 13.0391 1.33333 12.5304 1.33333 12V4.99999L5.64267 9.30666C6.26842 9.93083 7.11617 10.2813 8 10.2813C8.88383 10.2813 9.73158 9.93083 10.3573 9.30666L14.6667 4.99999V12C14.6667 12.5304 14.456 13.0391 14.0809 13.4142C13.7058 13.7893 13.1971 14 12.6667 14Z" fill="#7C7C7C"/>
</svg>
