<svg width="17" height="17" viewBox="0 0 17 17" fill="none" xmlns="http://www.w3.org/2000/svg">
<g clip-path="url(#clip0_270_220)">
<path d="M1.83333 9.83332C2.56971 9.83332 3.16667 9.23637 3.16667 8.49999C3.16667 7.76361 2.56971 7.16666 1.83333 7.16666C1.09695 7.16666 0.5 7.76361 0.5 8.49999C0.5 9.23637 1.09695 9.83332 1.83333 9.83332Z" fill="#596071"/>
<path d="M8.50008 9.83332C9.23646 9.83332 9.83341 9.23637 9.83341 8.49999C9.83341 7.76361 9.23646 7.16666 8.50008 7.16666C7.7637 7.16666 7.16675 7.76361 7.16675 8.49999C7.16675 9.23637 7.7637 9.83332 8.50008 9.83332Z" fill="#596071"/>
<path d="M15.1666 9.83332C15.903 9.83332 16.4999 9.23637 16.4999 8.49999C16.4999 7.76361 15.903 7.16666 15.1666 7.16666C14.4302 7.16666 13.8333 7.76361 13.8333 8.49999C13.8333 9.23637 14.4302 9.83332 15.1666 9.83332Z" fill="#596071"/>
</g>
<defs>
<clipPath id="clip0_270_220">
<rect width="16" height="16" fill="white" transform="translate(0.5 0.5)"/>
</clipPath>
</defs>
</svg>
